<svg xmlns="http://www.w3.org/2000/svg" xmlns:xlink="http://www.w3.org/1999/xlink" width="500" zoomAndPan="magnify" viewBox="0 0 375 374.999991" height="500" preserveAspectRatio="xMidYMid meet" version="1.0"><defs><g/></defs><g fill="#000000" fill-opacity="0.2392"><g transform="translate(47.483548, 241.057889)"><g><path d="M 36.671875 -37.890625 L 36.671875 -55 L 70.484375 -55 L 70.484375 -37.890625 Z M 47.9375 -26.21875 L 47.9375 -54.59375 L 70.484375 -54.59375 L 70.484375 -26.21875 Z M 6.796875 -26.21875 L 6.796875 -71.578125 L 29.328125 -71.578125 L 29.328125 -26.21875 Z M 6.796875 -71.4375 C 6.796875 -76.875 8.195312 -81.738281 11 -86.03125 C 13.8125 -90.332031 17.613281 -93.726562 22.40625 -96.21875 C 27.207031 -98.707031 32.640625 -99.953125 38.703125 -99.953125 L 38.703125 -82.84375 C 35.804688 -82.84375 33.519531 -81.847656 31.84375 -79.859375 C 30.164062 -77.867188 29.328125 -75.0625 29.328125 -71.4375 Z M 6.796875 -26.34375 L 29.328125 -26.34375 C 29.328125 -22.726562 30.164062 -19.921875 31.84375 -17.921875 C 33.519531 -15.929688 35.804688 -14.9375 38.703125 -14.9375 L 38.703125 2.171875 C 32.640625 2.171875 27.207031 0.925781 22.40625 -1.5625 C 17.613281 -4.050781 13.8125 -7.445312 11 -11.75 C 8.195312 -16.050781 6.796875 -20.914062 6.796875 -26.34375 Z M 50.796875 -66.6875 C 50.523438 -71.757812 49.300781 -75.71875 47.125 -78.5625 C 44.957031 -81.414062 42.109375 -82.84375 38.578125 -82.84375 L 38.578125 -99.953125 C 47.898438 -99.953125 55.410156 -97.347656 61.109375 -92.140625 C 66.816406 -86.941406 70.125 -79.632812 71.03125 -70.21875 Z M 70.484375 -26.34375 C 70.484375 -20.914062 69.078125 -16.050781 66.265625 -11.75 C 63.460938 -7.445312 59.660156 -4.050781 54.859375 -1.5625 C 50.066406 0.925781 44.640625 2.171875 38.578125 2.171875 L 38.578125 -14.9375 C 41.472656 -14.9375 43.753906 -15.929688 45.421875 -17.921875 C 47.097656 -19.921875 47.9375 -22.726562 47.9375 -26.34375 Z M 70.484375 -26.34375 "/></g></g></g><g fill="#000000" fill-opacity="0.2392"><g transform="translate(123.669104, 241.057889)"><g><path d="M 48.34375 0 L 31.515625 -44.953125 L 53.234375 -44.953125 L 70.078125 0 Z M 29.328125 -35.453125 L 29.328125 -52.5625 L 36.125 -52.5625 L 36.125 -35.453125 Z M 29.328125 -80.671875 L 29.328125 -97.78125 L 36.125 -97.78125 L 36.125 -80.671875 Z M 45.359375 -63.828125 L 45.359375 -69.40625 L 67.90625 -69.40625 L 67.90625 -63.828125 Z M 67.90625 -69.265625 L 45.359375 -69.265625 C 45.359375 -72.890625 44.519531 -75.695312 42.84375 -77.6875 C 41.175781 -79.675781 38.890625 -80.671875 35.984375 -80.671875 L 35.984375 -97.78125 C 42.054688 -97.78125 47.488281 -96.535156 52.28125 -94.046875 C 57.082031 -91.554688 60.882812 -88.160156 63.6875 -83.859375 C 66.5 -79.554688 67.90625 -74.691406 67.90625 -69.265625 Z M 67.90625 -63.96875 C 67.90625 -58.53125 66.5 -53.660156 63.6875 -49.359375 C 60.882812 -45.066406 57.082031 -41.675781 52.28125 -39.1875 C 47.488281 -36.695312 42.054688 -35.453125 35.984375 -35.453125 L 35.984375 -52.5625 C 38.890625 -52.5625 41.175781 -53.554688 42.84375 -55.546875 C 44.519531 -57.535156 45.359375 -60.34375 45.359375 -63.96875 Z M 8.15625 0 L 8.15625 -97.78125 L 30.6875 -97.78125 L 30.6875 0 Z M 8.15625 0 "/></g></g></g><g fill="#000000" fill-opacity="0.2392"><g transform="translate(196.86698, 241.057889)"><g><path d="M 49.171875 -26.21875 L 49.171875 -97.78125 L 71.703125 -97.78125 L 71.703125 -26.21875 Z M 8.15625 -26.21875 L 8.15625 -97.78125 L 30.6875 -97.78125 L 30.6875 -26.21875 Z M 71.703125 -26.34375 C 71.703125 -20.914062 70.296875 -16.050781 67.484375 -11.75 C 64.679688 -7.445312 60.878906 -4.050781 56.078125 -1.5625 C 51.285156 0.925781 45.859375 2.171875 39.796875 2.171875 L 39.796875 -14.9375 C 42.691406 -14.9375 44.976562 -15.929688 46.65625 -17.921875 C 48.332031 -19.921875 49.171875 -22.726562 49.171875 -26.34375 Z M 8.15625 -26.34375 L 30.6875 -26.34375 C 30.6875 -22.726562 31.523438 -19.921875 33.203125 -17.921875 C 34.878906 -15.929688 37.164062 -14.9375 40.0625 -14.9375 L 40.0625 2.171875 C 34 2.171875 28.566406 0.925781 23.765625 -1.5625 C 18.960938 -4.050781 15.160156 -7.445312 12.359375 -11.75 C 9.554688 -16.050781 8.15625 -20.914062 8.15625 -26.34375 Z M 8.15625 -26.34375 "/></g></g></g><g fill="#000000" fill-opacity="0.2392"><g transform="translate(274.410558, 241.057889)"><g><path d="M 35.984375 -44.953125 L 35.984375 -57.984375 C 38.890625 -57.984375 41.175781 -58.976562 42.84375 -60.96875 C 44.519531 -62.96875 45.359375 -65.78125 45.359375 -69.40625 L 67.90625 -69.40625 C 67.90625 -64.78125 66.5 -60.613281 63.6875 -56.90625 C 60.882812 -53.195312 57.082031 -50.273438 52.28125 -48.140625 C 47.488281 -46.015625 42.054688 -44.953125 35.984375 -44.953125 Z M 29.328125 0 L 29.328125 -17.109375 L 37.484375 -17.109375 L 37.484375 0 Z M 29.328125 -42.234375 L 29.328125 -57.984375 L 37.34375 -57.984375 L 37.34375 -42.234375 Z M 46.71875 -28.390625 L 46.71875 -30.96875 L 69.265625 -30.96875 L 69.265625 -28.390625 Z M 46.71875 -30.828125 C 46.71875 -34.453125 45.878906 -37.257812 44.203125 -39.25 C 42.523438 -41.238281 40.238281 -42.234375 37.34375 -42.234375 L 37.34375 -55.28125 C 43.414062 -55.28125 48.847656 -54.210938 53.640625 -52.078125 C 58.441406 -49.953125 62.242188 -47.054688 65.046875 -43.390625 C 67.859375 -39.722656 69.265625 -35.535156 69.265625 -30.828125 Z M 29.328125 -80.671875 L 29.328125 -97.78125 L 36.125 -97.78125 L 36.125 -80.671875 Z M 67.90625 -69.265625 L 45.359375 -69.265625 C 45.359375 -72.890625 44.519531 -75.695312 42.84375 -77.6875 C 41.175781 -79.675781 38.890625 -80.671875 35.984375 -80.671875 L 35.984375 -97.78125 C 42.054688 -97.78125 47.488281 -96.535156 52.28125 -94.046875 C 57.082031 -91.554688 60.882812 -88.160156 63.6875 -83.859375 C 66.5 -79.554688 67.90625 -74.691406 67.90625 -69.265625 Z M 69.265625 -28.515625 C 69.265625 -23.085938 67.859375 -18.222656 65.046875 -13.921875 C 62.242188 -9.617188 58.441406 -6.222656 53.640625 -3.734375 C 48.847656 -1.242188 43.414062 0 37.34375 0 L 37.34375 -17.109375 C 40.238281 -17.109375 42.523438 -18.101562 44.203125 -20.09375 C 45.878906 -22.09375 46.71875 -24.898438 46.71875 -28.515625 Z M 8.15625 0 L 8.15625 -97.78125 L 30.6875 -97.78125 L 30.6875 0 Z M 8.15625 0 "/></g></g></g><g fill="#000000" fill-opacity="1"><g transform="translate(36.345559, 228.245092)"><g><path d="M 36.671875 -37.890625 L 36.671875 -55 L 70.484375 -55 L 70.484375 -37.890625 Z M 47.9375 -26.21875 L 47.9375 -54.59375 L 70.484375 -54.59375 L 70.484375 -26.21875 Z M 6.796875 -26.21875 L 6.796875 -71.578125 L 29.328125 -71.578125 L 29.328125 -26.21875 Z M 6.796875 -71.4375 C 6.796875 -76.875 8.195312 -81.738281 11 -86.03125 C 13.8125 -90.332031 17.613281 -93.726562 22.40625 -96.21875 C 27.207031 -98.707031 32.640625 -99.953125 38.703125 -99.953125 L 38.703125 -82.84375 C 35.804688 -82.84375 33.519531 -81.847656 31.84375 -79.859375 C 30.164062 -77.867188 29.328125 -75.0625 29.328125 -71.4375 Z M 6.796875 -26.34375 L 29.328125 -26.34375 C 29.328125 -22.726562 30.164062 -19.921875 31.84375 -17.921875 C 33.519531 -15.929688 35.804688 -14.9375 38.703125 -14.9375 L 38.703125 2.171875 C 32.640625 2.171875 27.207031 0.925781 22.40625 -1.5625 C 17.613281 -4.050781 13.8125 -7.445312 11 -11.75 C 8.195312 -16.050781 6.796875 -20.914062 6.796875 -26.34375 Z M 50.796875 -66.6875 C 50.523438 -71.757812 49.300781 -75.71875 47.125 -78.5625 C 44.957031 -81.414062 42.109375 -82.84375 38.578125 -82.84375 L 38.578125 -99.953125 C 47.898438 -99.953125 55.410156 -97.347656 61.109375 -92.140625 C 66.816406 -86.941406 70.125 -79.632812 71.03125 -70.21875 Z M 70.484375 -26.34375 C 70.484375 -20.914062 69.078125 -16.050781 66.265625 -11.75 C 63.460938 -7.445312 59.660156 -4.050781 54.859375 -1.5625 C 50.066406 0.925781 44.640625 2.171875 38.578125 2.171875 L 38.578125 -14.9375 C 41.472656 -14.9375 43.753906 -15.929688 45.421875 -17.921875 C 47.097656 -19.921875 47.9375 -22.726562 47.9375 -26.34375 Z M 70.484375 -26.34375 "/></g></g></g><g fill="#000000" fill-opacity="1"><g transform="translate(112.531115, 228.245092)"><g><path d="M 48.34375 0 L 31.515625 -44.953125 L 53.234375 -44.953125 L 70.078125 0 Z M 29.328125 -35.453125 L 29.328125 -52.5625 L 36.125 -52.5625 L 36.125 -35.453125 Z M 29.328125 -80.671875 L 29.328125 -97.78125 L 36.125 -97.78125 L 36.125 -80.671875 Z M 45.359375 -63.828125 L 45.359375 -69.40625 L 67.90625 -69.40625 L 67.90625 -63.828125 Z M 67.90625 -69.265625 L 45.359375 -69.265625 C 45.359375 -72.890625 44.519531 -75.695312 42.84375 -77.6875 C 41.175781 -79.675781 38.890625 -80.671875 35.984375 -80.671875 L 35.984375 -97.78125 C 42.054688 -97.78125 47.488281 -96.535156 52.28125 -94.046875 C 57.082031 -91.554688 60.882812 -88.160156 63.6875 -83.859375 C 66.5 -79.554688 67.90625 -74.691406 67.90625 -69.265625 Z M 67.90625 -63.96875 C 67.90625 -58.53125 66.5 -53.660156 63.6875 -49.359375 C 60.882812 -45.066406 57.082031 -41.675781 52.28125 -39.1875 C 47.488281 -36.695312 42.054688 -35.453125 35.984375 -35.453125 L 35.984375 -52.5625 C 38.890625 -52.5625 41.175781 -53.554688 42.84375 -55.546875 C 44.519531 -57.535156 45.359375 -60.34375 45.359375 -63.96875 Z M 8.15625 0 L 8.15625 -97.78125 L 30.6875 -97.78125 L 30.6875 0 Z M 8.15625 0 "/></g></g></g><g fill="#000000" fill-opacity="1"><g transform="translate(185.728991, 228.245092)"><g><path d="M 49.171875 -26.21875 L 49.171875 -97.78125 L 71.703125 -97.78125 L 71.703125 -26.21875 Z M 8.15625 -26.21875 L 8.15625 -97.78125 L 30.6875 -97.78125 L 30.6875 -26.21875 Z M 71.703125 -26.34375 C 71.703125 -20.914062 70.296875 -16.050781 67.484375 -11.75 C 64.679688 -7.445312 60.878906 -4.050781 56.078125 -1.5625 C 51.285156 0.925781 45.859375 2.171875 39.796875 2.171875 L 39.796875 -14.9375 C 42.691406 -14.9375 44.976562 -15.929688 46.65625 -17.921875 C 48.332031 -19.921875 49.171875 -22.726562 49.171875 -26.34375 Z M 8.15625 -26.34375 L 30.6875 -26.34375 C 30.6875 -22.726562 31.523438 -19.921875 33.203125 -17.921875 C 34.878906 -15.929688 37.164062 -14.9375 40.0625 -14.9375 L 40.0625 2.171875 C 34 2.171875 28.566406 0.925781 23.765625 -1.5625 C 18.960938 -4.050781 15.160156 -7.445312 12.359375 -11.75 C 9.554688 -16.050781 8.15625 -20.914062 8.15625 -26.34375 Z M 8.15625 -26.34375 "/></g></g></g><g fill="#000000" fill-opacity="1"><g transform="translate(263.272569, 228.245092)"><g><path d="M 35.984375 -44.953125 L 35.984375 -57.984375 C 38.890625 -57.984375 41.175781 -58.976562 42.84375 -60.96875 C 44.519531 -62.96875 45.359375 -65.78125 45.359375 -69.40625 L 67.90625 -69.40625 C 67.90625 -64.78125 66.5 -60.613281 63.6875 -56.90625 C 60.882812 -53.195312 57.082031 -50.273438 52.28125 -48.140625 C 47.488281 -46.015625 42.054688 -44.953125 35.984375 -44.953125 Z M 29.328125 0 L 29.328125 -17.109375 L 37.484375 -17.109375 L 37.484375 0 Z M 29.328125 -42.234375 L 29.328125 -57.984375 L 37.34375 -57.984375 L 37.34375 -42.234375 Z M 46.71875 -28.390625 L 46.71875 -30.96875 L 69.265625 -30.96875 L 69.265625 -28.390625 Z M 46.71875 -30.828125 C 46.71875 -34.453125 45.878906 -37.257812 44.203125 -39.25 C 42.523438 -41.238281 40.238281 -42.234375 37.34375 -42.234375 L 37.34375 -55.28125 C 43.414062 -55.28125 48.847656 -54.210938 53.640625 -52.078125 C 58.441406 -49.953125 62.242188 -47.054688 65.046875 -43.390625 C 67.859375 -39.722656 69.265625 -35.535156 69.265625 -30.828125 Z M 29.328125 -80.671875 L 29.328125 -97.78125 L 36.125 -97.78125 L 36.125 -80.671875 Z M 67.90625 -69.265625 L 45.359375 -69.265625 C 45.359375 -72.890625 44.519531 -75.695312 42.84375 -77.6875 C 41.175781 -79.675781 38.890625 -80.671875 35.984375 -80.671875 L 35.984375 -97.78125 C 42.054688 -97.78125 47.488281 -96.535156 52.28125 -94.046875 C 57.082031 -91.554688 60.882812 -88.160156 63.6875 -83.859375 C 66.5 -79.554688 67.90625 -74.691406 67.90625 -69.265625 Z M 69.265625 -28.515625 C 69.265625 -23.085938 67.859375 -18.222656 65.046875 -13.921875 C 62.242188 -9.617188 58.441406 -6.222656 53.640625 -3.734375 C 48.847656 -1.242188 43.414062 0 37.34375 0 L 37.34375 -17.109375 C 40.238281 -17.109375 42.523438 -18.101562 44.203125 -20.09375 C 45.878906 -22.09375 46.71875 -24.898438 46.71875 -28.515625 Z M 8.15625 0 L 8.15625 -97.78125 L 30.6875 -97.78125 L 30.6875 0 Z M 8.15625 0 "/></g></g></g></svg>